<?xml version="1.0" encoding="utf-8"?>
<!-- Generator: Adobe Illustrator 22.1.0, SVG Export Plug-In . SVG Version: 6.00 Build 0)  -->
<svg version="1.1" id="Layer_1" xmlns="http://www.w3.org/2000/svg" xmlns:xlink="http://www.w3.org/1999/xlink" x="0px" y="0px"
	 viewBox="0 0 669.5 440" style="enable-background:new 0 0 669.5 440;" xml:space="preserve">
<style type="text/css">
	.st0{fill:none;stroke:url(#SVGID_1_);stroke-width:8;stroke-miterlimit:10;}
	.st1{clip-path:url(#SVGID_3_);}
	.st2{fill:url(#SVGID_4_);}
	.st3{clip-path:url(#SVGID_6_);}
	.st4{fill:url(#SVGID_7_);}
	.st5{clip-path:url(#SVGID_9_);}
	.st6{fill:url(#SVGID_10_);}
	.st7{clip-path:url(#SVGID_12_);}
	.st8{fill:url(#SVGID_13_);}
	.st9{fill:url(#SVGID_14_);}
	.st10{fill:url(#SVGID_15_);}
	.st11{fill:url(#SVGID_16_);}
	.st12{fill:url(#SVGID_17_);}
	.st13{fill:url(#SVGID_18_);}
</style>
<radialGradient id="SVGID_1_" cx="332.317" cy="220.0156" r="168.5847" gradientUnits="userSpaceOnUse">
	<stop  offset="0" style="stop-color:#7CB1C1"/>
	<stop  offset="0.36" style="stop-color:#7CB1C1"/>
	<stop  offset="0.46" style="stop-color:#79ACBE"/>
	<stop  offset="0.59" style="stop-color:#769EB6"/>
	<stop  offset="0.74" style="stop-color:#6D88A7"/>
	<stop  offset="0.9" style="stop-color:#58759B"/>
	<stop  offset="1" style="stop-color:#58759B"/>
</radialGradient>
<path class="st0" d="M550.6,260.2H114c-6.6,0-12-5.4-12-12v-56.3c0-6.6,5.4-12,12-12h436.6c6.6,0,12,5.4,12,12v56.3
	C562.6,254.8,557.2,260.2,550.6,260.2z"/>
<g>
	<defs>
		<path id="SVGID_2_" d="M64.8,87.5C55,94.8,50.1,100.7,46.8,107c-17.1,34.4-5.3,67-0.8,76.6s15.7,28.6,15.7,28.6L190,0L64.8,87.5z"
			/>
	</defs>
	<clipPath id="SVGID_3_">
		<use xlink:href="#SVGID_2_"  style="overflow:visible;"/>
	</clipPath>
	<g class="st1">
		
			<linearGradient id="SVGID_4_" gradientUnits="userSpaceOnUse" x1="-171.074" y1="169.7882" x2="-160.6857" y2="169.7882" gradientTransform="matrix(-15.8757 17.2044 -17.2044 -15.8757 406.1292 5646.187)">
			<stop  offset="0" style="stop-color:#808FA9"/>
			<stop  offset="0.49" style="stop-color:#808FA9"/>
			<stop  offset="0.56" style="stop-color:#7C8CA8"/>
			<stop  offset="0.66" style="stop-color:#7387A5"/>
			<stop  offset="0.79" style="stop-color:#637D9F"/>
			<stop  offset="0.87" style="stop-color:#58759B"/>
			<stop  offset="1" style="stop-color:#58759B"/>
		</linearGradient>
		<path class="st2" d="M-75.9,114.6L103.5-79.8L295.7,97.6L116.3,292L-75.9,114.6z"/>
	</g>
</g>
<g>
	<defs>
		<path id="SVGID_5_" d="M15.6,148.1c-6.4,14.4-12.9,30.8-14.5,46.4c-1.1,11.1-1.8,24.2,0,51.3c3.3,41.7,24.5,79.1,54.3,100.6
			L189.8,440c0,0-84-121.2-154.9-241.6c-7.2-12.7-12-26.6-14.2-41.1c-0.9-6.5-0.9-13.2,0.2-19.7C19,141,15.6,148.1,15.6,148.1"/>
	</defs>
	<clipPath id="SVGID_6_">
		<use xlink:href="#SVGID_5_"  style="overflow:visible;"/>
	</clipPath>
	<g class="st3">
		
			<linearGradient id="SVGID_7_" gradientUnits="userSpaceOnUse" x1="-187.2656" y1="165.542" x2="-176.8997" y2="165.542" gradientTransform="matrix(30.7972 29.2153 -29.2153 30.7972 10565.6523 535.884)">
			<stop  offset="0" style="stop-color:#808FA9"/>
			<stop  offset="0.19" style="stop-color:#808FA9"/>
			<stop  offset="0.36" style="stop-color:#8595AE"/>
			<stop  offset="0.67" style="stop-color:#7CB1C1"/>
			<stop  offset="1" style="stop-color:#7CB1C1"/>
		</linearGradient>
		<path class="st4" d="M-151.7,296.8L89.6,42.5l251.3,238.4L99.6,535.2L-151.7,296.8z"/>
	</g>
</g>
<g>
	<defs>
		<path id="SVGID_8_" d="M479.6,440l125.2-87.5c9.8-7.3,14.7-13.3,17.8-19.6c17.1-34.4,5.3-66.9,0.9-76.6s-15.7-28.6-15.7-28.6
			L479.6,440z"/>
	</defs>
	<clipPath id="SVGID_9_">
		<use xlink:href="#SVGID_8_"  style="overflow:visible;"/>
	</clipPath>
	<g class="st5">
		
			<linearGradient id="SVGID_10_" gradientUnits="userSpaceOnUse" x1="-189.9799" y1="160.3694" x2="-179.5922" y2="160.3694" gradientTransform="matrix(13.2917 -18.9051 18.9051 13.2917 -19.1323 -5286.5869)">
			<stop  offset="0" style="stop-color:#7CB1C1"/>
			<stop  offset="0.36" style="stop-color:#7CB1C1"/>
			<stop  offset="0.46" style="stop-color:#79ACBE"/>
			<stop  offset="0.59" style="stop-color:#769EB6"/>
			<stop  offset="0.74" style="stop-color:#6D88A7"/>
			<stop  offset="0.9" style="stop-color:#58759B"/>
			<stop  offset="1" style="stop-color:#58759B"/>
		</linearGradient>
		<path class="st6" d="M379.8,369.9l152.8-217.3l207,145.5L586.7,515.4L379.8,369.9z"/>
	</g>
</g>
<g>
	<defs>
		<path id="SVGID_11_" d="M634.7,241.7c7.2,12.7,12,26.6,14.2,41.1c0.9,6.5,0.9,13.2-0.2,19.7c1.8-3.4,5.2-10.5,5.2-10.5
			c6.4-14.4,12.9-30.8,14.5-46.5c1.1-11.1,1.8-24.2,0-51.3c-3.2-41.6-24.5-79.1-54.2-100.6L479.7,0C479.7,0,563.7,121.2,634.7,241.7
			"/>
	</defs>
	<clipPath id="SVGID_12_">
		<use xlink:href="#SVGID_11_"  style="overflow:visible;"/>
	</clipPath>
	<g class="st7">
		
			<linearGradient id="SVGID_13_" gradientUnits="userSpaceOnUse" x1="-181.4778" y1="156.2527" x2="-171.0901" y2="156.2527" gradientTransform="matrix(32.0333 15.4855 -15.4855 32.0333 8668.167 -2111.3682)">
			<stop  offset="0" style="stop-color:#808FA9"/>
			<stop  offset="0.4" style="stop-color:#808FA9"/>
			<stop  offset="0.61" style="stop-color:#8698B0"/>
			<stop  offset="1" style="stop-color:#81B6C0"/>
		</linearGradient>
		<path class="st8" d="M361.2,245.2L515.8-74.7l273,132L634.1,377.1L361.2,245.2z"/>
	</g>
</g>
<g>
	<g>
		<linearGradient id="SVGID_14_" gradientUnits="userSpaceOnUse" x1="130.4922" y1="216.5156" x2="249.4703" y2="216.5156">
			<stop  offset="0" style="stop-color:#7CB1C1"/>
			<stop  offset="0.36" style="stop-color:#7CB1C1"/>
			<stop  offset="0.46" style="stop-color:#79ACBE"/>
			<stop  offset="0.59" style="stop-color:#769EB6"/>
			<stop  offset="0.74" style="stop-color:#6D88A7"/>
			<stop  offset="0.9" style="stop-color:#58759B"/>
			<stop  offset="1" style="stop-color:#58759B"/>
		</linearGradient>
		<path class="st9" d="M130.5,222.5c34.7,0,69.4,0,104.2,0c4.9,0,9.9,0,14.8,0c7.7,0,7.7-12,0-12c-34.7,0-69.4,0-104.2,0
			c-4.9,0-9.9,0-14.8,0C122.8,210.5,122.8,222.5,130.5,222.5L130.5,222.5z"/>
	</g>
</g>
<g>
	<g>
		<linearGradient id="SVGID_15_" gradientUnits="userSpaceOnUse" x1="297.4884" y1="216.5156" x2="416.4665" y2="216.5156">
			<stop  offset="0" style="stop-color:#7CB1C1"/>
			<stop  offset="0.36" style="stop-color:#7CB1C1"/>
			<stop  offset="0.46" style="stop-color:#79ACBE"/>
			<stop  offset="0.59" style="stop-color:#769EB6"/>
			<stop  offset="0.74" style="stop-color:#6D88A7"/>
			<stop  offset="0.9" style="stop-color:#58759B"/>
			<stop  offset="1" style="stop-color:#58759B"/>
		</linearGradient>
		<path class="st10" d="M297.5,222.5c34.7,0,69.4,0,104.2,0c4.9,0,9.9,0,14.8,0c7.7,0,7.7-12,0-12c-34.7,0-69.4,0-104.2,0
			c-4.9,0-9.9,0-14.8,0C289.8,210.5,289.8,222.5,297.5,222.5L297.5,222.5z"/>
	</g>
</g>
<g>
	<g>
		<linearGradient id="SVGID_16_" gradientUnits="userSpaceOnUse" x1="460.2217" y1="216.5156" x2="522.8479" y2="216.5156">
			<stop  offset="0" style="stop-color:#7CB1C1"/>
			<stop  offset="0.36" style="stop-color:#7CB1C1"/>
			<stop  offset="0.46" style="stop-color:#79ACBE"/>
			<stop  offset="0.59" style="stop-color:#769EB6"/>
			<stop  offset="0.74" style="stop-color:#6D88A7"/>
			<stop  offset="0.9" style="stop-color:#58759B"/>
			<stop  offset="1" style="stop-color:#58759B"/>
		</linearGradient>
		<path class="st11" d="M460.2,222.5c20.9,0,41.8,0,62.6,0c7.7,0,7.7-12,0-12c-20.9,0-41.8,0-62.6,0
			C452.5,210.5,452.5,222.5,460.2,222.5L460.2,222.5z"/>
	</g>
</g>
<g>
	<g>
		<linearGradient id="SVGID_17_" gradientUnits="userSpaceOnUse" x1="433.1378" y1="238.1279" x2="445.1558" y2="238.1279">
			<stop  offset="0" style="stop-color:#7CB1C1"/>
			<stop  offset="0.36" style="stop-color:#7CB1C1"/>
			<stop  offset="0.46" style="stop-color:#79ACBE"/>
			<stop  offset="0.59" style="stop-color:#769EB6"/>
			<stop  offset="0.74" style="stop-color:#6D88A7"/>
			<stop  offset="0.9" style="stop-color:#58759B"/>
			<stop  offset="1" style="stop-color:#58759B"/>
		</linearGradient>
		<path class="st12" d="M439.2,232.1C439.1,232.1,439.1,232.1,439.2,232.1c-1.5,0-3.2,0.7-4.3,1.8c-1,1-1.8,2.7-1.8,4.2
			c0.1,1.6,0.6,3.2,1.8,4.2c1.2,1.1,2.6,1.8,4.2,1.8c0,0,0,0,0,0c1.5,0,3.2-0.7,4.2-1.8c1-1,1.8-2.7,1.8-4.2
			c-0.1-1.6-0.6-3.2-1.8-4.2C442.2,232.8,440.8,232.1,439.2,232.1L439.2,232.1z"/>
	</g>
</g>
<g>
	<g>
		<linearGradient id="SVGID_18_" gradientUnits="userSpaceOnUse" x1="267.0698" y1="238.1279" x2="279.0878" y2="238.1279">
			<stop  offset="0" style="stop-color:#7CB1C1"/>
			<stop  offset="0.36" style="stop-color:#7CB1C1"/>
			<stop  offset="0.46" style="stop-color:#79ACBE"/>
			<stop  offset="0.59" style="stop-color:#769EB6"/>
			<stop  offset="0.74" style="stop-color:#6D88A7"/>
			<stop  offset="0.9" style="stop-color:#58759B"/>
			<stop  offset="1" style="stop-color:#58759B"/>
		</linearGradient>
		<path class="st13" d="M273.1,232.1C273.1,232.1,273.1,232.1,273.1,232.1c-1.5,0-3.2,0.7-4.3,1.8c-1,1-1.8,2.7-1.8,4.2
			c0.1,1.6,0.6,3.2,1.8,4.2c1.2,1.1,2.6,1.8,4.2,1.8c0,0,0,0,0,0c1.5,0,3.2-0.7,4.2-1.8c1-1,1.8-2.7,1.8-4.2
			c-0.1-1.6-0.6-3.2-1.8-4.2C276.2,232.8,274.7,232.1,273.1,232.1L273.1,232.1z"/>
	</g>
</g>
</svg>
